<mxfile host="app.diagrams.net" modified="2024-02-05T05:40:09.029Z" agent="Mozilla/5.0 (Macintosh; Intel Mac OS X 10_15_7) AppleWebKit/537.36 (KHTML, like Gecko) Chrome/121.0.0.0 Safari/537.36" etag="RHCAlohWg31UDeXgpfTQ" version="23.1.1" type="github">
  <diagram name="Page-1" id="Spny9eBOnEaTohduiuO0">
    <mxGraphModel dx="1004" dy="648" grid="1" gridSize="10" guides="1" tooltips="1" connect="1" arrows="1" fold="1" page="1" pageScale="1" pageWidth="850" pageHeight="1100" math="0" shadow="0">
      <root>
        <mxCell id="0" />
        <mxCell id="1" parent="0" />
        <mxCell id="7Uv4zYvhc0PwlJTERLrj-8" style="edgeStyle=orthogonalEdgeStyle;rounded=0;orthogonalLoop=1;jettySize=auto;html=1;exitX=1;exitY=0.5;exitDx=0;exitDy=0;entryX=0.5;entryY=0;entryDx=0;entryDy=0;strokeColor=#9673A6;" edge="1" parent="1" source="7Uv4zYvhc0PwlJTERLrj-1" target="7Uv4zYvhc0PwlJTERLrj-7">
          <mxGeometry relative="1" as="geometry">
            <mxPoint x="156.00000000000273" y="190" as="sourcePoint" />
          </mxGeometry>
        </mxCell>
        <mxCell id="7Uv4zYvhc0PwlJTERLrj-1" value="Microsoft Building Footprint Layer" style="ellipse;whiteSpace=wrap;html=1;fillColor=#e1d5e7;strokeColor=#9673a6;fontColor=#B3B3B3;" vertex="1" parent="1">
          <mxGeometry x="30" y="150" width="120" height="80" as="geometry" />
        </mxCell>
        <mxCell id="7Uv4zYvhc0PwlJTERLrj-14" style="edgeStyle=orthogonalEdgeStyle;rounded=0;orthogonalLoop=1;jettySize=auto;html=1;exitX=1;exitY=0.5;exitDx=0;exitDy=0;entryX=0;entryY=0.5;entryDx=0;entryDy=0;strokeColor=#9673A6;" edge="1" parent="1" source="7Uv4zYvhc0PwlJTERLrj-2" target="7Uv4zYvhc0PwlJTERLrj-7">
          <mxGeometry relative="1" as="geometry">
            <mxPoint x="156.00000000000273" y="300" as="sourcePoint" />
            <Array as="points">
              <mxPoint x="166" y="300" />
              <mxPoint x="166" y="245" />
            </Array>
          </mxGeometry>
        </mxCell>
        <mxCell id="7Uv4zYvhc0PwlJTERLrj-2" value="2020 Census Block Population Characterisitcs" style="ellipse;whiteSpace=wrap;html=1;fillColor=#e1d5e7;strokeColor=#9673a6;fontColor=#B3B3B3;" vertex="1" parent="1">
          <mxGeometry x="30" y="260" width="120" height="80" as="geometry" />
        </mxCell>
        <mxCell id="7Uv4zYvhc0PwlJTERLrj-15" style="edgeStyle=orthogonalEdgeStyle;rounded=0;orthogonalLoop=1;jettySize=auto;html=1;exitX=1;exitY=0.5;exitDx=0;exitDy=0;entryX=0;entryY=0.5;entryDx=0;entryDy=0;strokeColor=#9673A6;" edge="1" parent="1" source="7Uv4zYvhc0PwlJTERLrj-3" target="7Uv4zYvhc0PwlJTERLrj-10">
          <mxGeometry relative="1" as="geometry">
            <mxPoint x="246" y="410.46153846153834" as="targetPoint" />
            <mxPoint x="156.00000000000273" y="410" as="sourcePoint" />
            <Array as="points">
              <mxPoint x="176" y="410" />
              <mxPoint x="176" y="355" />
            </Array>
          </mxGeometry>
        </mxCell>
        <mxCell id="7Uv4zYvhc0PwlJTERLrj-3" value="Healthcare &lt;br&gt;Facilities&amp;nbsp;" style="ellipse;whiteSpace=wrap;html=1;fillColor=#e1d5e7;strokeColor=#9673a6;fontColor=#B3B3B3;" vertex="1" parent="1">
          <mxGeometry x="30" y="370" width="120" height="80" as="geometry" />
        </mxCell>
        <mxCell id="7Uv4zYvhc0PwlJTERLrj-17" style="edgeStyle=orthogonalEdgeStyle;rounded=0;orthogonalLoop=1;jettySize=auto;html=1;exitX=0.5;exitY=1;exitDx=0;exitDy=0;entryX=0.5;entryY=0;entryDx=0;entryDy=0;strokeColor=#666666;" edge="1" parent="1" source="7Uv4zYvhc0PwlJTERLrj-7" target="7Uv4zYvhc0PwlJTERLrj-10">
          <mxGeometry relative="1" as="geometry" />
        </mxCell>
        <mxCell id="7Uv4zYvhc0PwlJTERLrj-7" value="&lt;meta charset=&quot;utf-8&quot;&gt;&lt;span style=&quot;color: rgb(0, 0, 0); font-family: Helvetica; font-size: 12px; font-style: normal; font-variant-ligatures: normal; font-variant-caps: normal; font-weight: 400; letter-spacing: normal; orphans: 2; text-align: center; text-indent: 0px; text-transform: none; widows: 2; word-spacing: 0px; -webkit-text-stroke-width: 0px; background-color: rgb(251, 251, 251); text-decoration-thickness: initial; text-decoration-style: initial; text-decoration-color: initial; float: none; display: inline !important;&quot;&gt;Assign pop. characterisitcs to buildings that fall&amp;nbsp; within a census block group&lt;/span&gt;" style="rounded=1;whiteSpace=wrap;html=1;fillColor=#f5f5f5;fontColor=#333333;strokeColor=#666666;" vertex="1" parent="1">
          <mxGeometry x="186" y="215" width="280" height="60" as="geometry" />
        </mxCell>
        <mxCell id="7Uv4zYvhc0PwlJTERLrj-21" style="edgeStyle=orthogonalEdgeStyle;rounded=0;orthogonalLoop=1;jettySize=auto;html=1;exitX=0.25;exitY=1;exitDx=0;exitDy=0;entryX=0;entryY=0.5;entryDx=0;entryDy=0;strokeColor=#666666;" edge="1" parent="1" source="7Uv4zYvhc0PwlJTERLrj-10" target="7Uv4zYvhc0PwlJTERLrj-13">
          <mxGeometry relative="1" as="geometry" />
        </mxCell>
        <mxCell id="7Uv4zYvhc0PwlJTERLrj-10" value="Calculate shortest distance or travel time to the closest facility&amp;nbsp;" style="rounded=1;whiteSpace=wrap;html=1;fillColor=#f5f5f5;fontColor=#333333;strokeColor=#666666;" vertex="1" parent="1">
          <mxGeometry x="226" y="325" width="280" height="60" as="geometry" />
        </mxCell>
        <mxCell id="7Uv4zYvhc0PwlJTERLrj-20" style="edgeStyle=orthogonalEdgeStyle;rounded=0;orthogonalLoop=1;jettySize=auto;html=1;exitX=0.25;exitY=1;exitDx=0;exitDy=0;entryX=0;entryY=0.5;entryDx=0;entryDy=0;strokeColor=#666666;" edge="1" parent="1" source="7Uv4zYvhc0PwlJTERLrj-13" target="7Uv4zYvhc0PwlJTERLrj-18">
          <mxGeometry relative="1" as="geometry" />
        </mxCell>
        <mxCell id="7Uv4zYvhc0PwlJTERLrj-13" value="Calculate average per census block, tract,&amp;nbsp; and county" style="rounded=1;whiteSpace=wrap;html=1;fillColor=#f5f5f5;fontColor=#333333;strokeColor=#666666;" vertex="1" parent="1">
          <mxGeometry x="316" y="399" width="280" height="60" as="geometry" />
        </mxCell>
        <mxCell id="7Uv4zYvhc0PwlJTERLrj-18" value="Compare county health access with stage of diagnosis" style="rounded=1;whiteSpace=wrap;html=1;fillColor=#f5f5f5;fontColor=#333333;strokeColor=#666666;" vertex="1" parent="1">
          <mxGeometry x="407" y="470" width="280" height="60" as="geometry" />
        </mxCell>
      </root>
    </mxGraphModel>
  </diagram>
</mxfile>
